<svg width="797" height="389" viewBox="0 0 797 389" fill="none" xmlns="http://www.w3.org/2000/svg">
<g clip-path="url(#clip0_88_57)">
<path d="M39.5062 386.944C39.5062 386.944 -27.2726 304.207 12.8061 225.47C52.8848 146.733 128.983 165.417 235.783 85.3661C365.453 -11.8268 456.53 -17.1978 572.307 25.3134C637.714 49.3116 648.405 148.104 752.575 209.471C846.454 264.839 769.956 358.946 720.501 373.631C671.103 388.315 637.714 388.315 637.714 388.315L39.5062 386.944Z" fill="#EEFDF9"/>
<path d="M436.978 209.07C420.34 242.896 399.415 335.232 393.697 340.318C387.98 345.403 355.105 365.002 349.388 374.487C343.67 383.972 346.243 380.829 348.759 381.458C351.274 382.086 494.38 382.715 494.38 382.715C494.38 382.715 477.971 284.665 476.027 283.979C474.141 283.351 436.978 209.07 436.978 209.07Z" fill="#90BFB6"/>
<path d="M413.308 382.258C439.608 382.429 467.337 382.6 482.602 382.658L461.677 257.752C450.528 236.154 436.978 209.07 436.978 209.07C434.862 213.356 432.69 218.498 430.517 224.383C428.345 318.205 441.895 344.489 431.718 361.231C423.828 374.258 416.567 380.086 413.308 382.258Z" fill="#578F82"/>
<path d="M710.382 389H23.3267C20.4108 389 18.0095 386.6 18.0095 383.686C18.0095 380.772 20.4108 378.372 23.3267 378.372H710.382C713.298 378.372 715.699 380.772 715.699 383.686C715.699 386.6 713.298 389 710.382 389Z" fill="#2E5B9A"/>
<path d="M524.739 168.273C548.523 190.215 601.409 211.013 601.409 211.013C601.409 211.013 609.47 285.236 603.982 327.233C598.493 369.23 601.523 377.801 601.523 377.801H492.436C492.436 377.801 477.8 357.517 450.985 294.378C433.947 254.21 436.978 209.127 436.978 209.127L503.413 179.301L524.739 168.273Z" fill="#90BFB6"/>
<path d="M492.436 377.744H601.523C601.523 377.744 598.493 369.23 603.982 327.176C608.499 292.55 603.868 236.154 602.038 217.298L592.09 213.07C567.162 220.269 552.811 257.352 548.638 293.636C545.836 317.919 505.586 341.803 479.229 354.945C487.919 371.458 492.436 377.744 492.436 377.744Z" fill="#578F82"/>
<path d="M465.736 92.1074C452.586 121.362 468.366 148.503 467.909 147.361C467.451 146.218 487.805 97.9356 487.805 97.9356L465.736 92.1074Z" fill="#2E5B9A"/>
<path d="M515.534 113.706L532.229 174.616C532.686 176.33 532.286 178.158 531.2 179.53C527.312 184.329 521.709 194.271 510.503 197.414C508.33 198.043 505.643 198.214 503.471 198.214C501.184 198.214 499.183 196.614 498.782 194.386L487.634 136.619L515.534 113.706Z" fill="#F09959"/>
<path d="M512.332 118.848L506.215 121.363L487.462 136.676L497.524 187.872C514.619 177.244 517.135 170.045 512.332 118.848Z" fill="#E38540"/>
<path d="M514.905 140.675C511.189 160.731 496.209 174.273 481.402 170.959C466.594 167.645 459.504 154.674 461.276 128.676C462.649 108.278 472.711 86.1079 487.519 89.4219C502.327 92.736 518.622 120.62 514.905 140.675Z" fill="#F09959"/>
<path d="M601.409 210.956C623.478 215.927 627.594 260.724 634.741 307.977C635.542 313.405 639.83 359.459 639.83 359.459C639.83 359.459 640.23 367.916 631.825 372.087C624.621 375.687 621.706 378.429 579.912 378.829C539.776 379.229 488.034 377.572 488.034 377.572C488.034 377.572 487.576 362.659 491.693 355.345C497.868 344.375 561.33 328.604 567.276 327.804C568.134 315.977 561.445 273.237 570.65 244.268C576.996 224.326 583.799 213.87 592.318 211.184C595.12 210.27 598.15 210.27 601.409 210.956Z" fill="#90BFB6"/>
<path d="M510.732 378.544C530.514 378.829 557.671 379.115 579.912 378.886C621.706 378.486 624.621 375.744 631.825 372.144C640.287 367.916 640.687 360.773 640.687 360.773C640.687 360.773 636.399 311.806 635.599 306.377C630.968 274.723 625.936 238.554 614.273 221.069C625.25 253.238 627.023 280.322 627.194 291.921C627.309 297.807 626.737 305.806 625.022 311.463C623.135 317.691 618.275 321.576 610.671 319.462C595.463 315.234 576.481 324.09 576.481 324.09C576.481 324.09 590.832 319.005 604.325 323.69C617.818 328.319 645.719 359.116 615.302 370.487C606.04 373.915 550.353 376.772 510.732 378.544Z" fill="#84C7B7"/>
<path d="M495.066 356.774C495.066 356.774 500.669 347.232 512.218 347.232C523.767 347.232 522.91 366.087 521.252 372.258C519.536 378.429 512.79 378.715 512.79 378.715L488.034 377.572L495.066 356.774Z" fill="#96CFE0"/>
<path d="M469.967 383H313.883C311.539 383 309.595 381.058 309.595 378.715V377.458C309.595 375.115 311.539 373.173 313.883 373.173H469.967C472.311 373.173 474.255 375.115 474.255 377.458V378.715C474.198 381.115 472.311 383 469.967 383Z" fill="#75A1DE"/>
<path d="M491.922 357.917C467.737 349.174 461.391 352.488 455.902 350.888C442.409 346.946 439.036 350.317 430.288 374.258C428.573 379.001 433.662 379.344 438.75 379.344C443.839 379.344 450.013 369.516 451.957 368.373C453.901 367.23 459.275 366.659 459.275 366.659C459.275 366.659 457.56 366.659 455.045 371.744C452.529 376.829 449.442 378.772 453.329 378.772C457.217 378.772 457.846 372.315 465.164 373.687C472.483 375.115 469.681 378.772 487.977 378.486C506.272 378.201 520.051 378.486 519.765 367.516C519.479 357.117 520.623 351.917 510.732 350.089C503.185 348.66 491.922 357.917 491.922 357.917Z" fill="#F09959"/>
<path d="M492.265 357.917C508.445 356.088 503.699 376.258 501.984 377.915C500.269 379.629 511.018 378.486 511.018 378.486C511.018 378.486 516.049 370.43 511.818 361.116C507.587 351.803 499.183 351.403 499.183 351.403L491.979 355.345L492.265 357.917Z" fill="#A86B48"/>
<path d="M509.188 356.145C508.959 358.659 504.728 360.316 499.697 359.916C494.666 359.516 490.778 357.117 490.95 354.66C491.178 352.145 495.409 350.488 500.44 350.888C505.472 351.288 509.359 353.688 509.188 356.145Z" fill="#2E5B9A"/>
<path d="M507.873 354.945C507.701 357.174 503.871 358.659 499.411 358.317C494.895 357.917 491.407 355.802 491.636 353.574C491.807 351.346 495.638 349.86 500.097 350.203C504.557 350.603 508.044 352.717 507.873 354.945Z" fill="#3E6BAB"/>
<path d="M505.071 353.917C504.957 355.517 502.213 356.602 498.954 356.317C495.695 356.031 493.237 354.545 493.351 352.946C493.465 351.346 496.21 350.26 499.468 350.546C502.67 350.774 505.186 352.317 505.071 353.917Z" fill="#F0CEB4"/>
<path d="M308.108 352.146H150.881C142.591 352.146 135.501 346.146 134.015 337.918L113.489 224.783C111.546 214.099 119.664 204.271 130.356 204.271H287.64C295.93 204.271 303.02 210.27 304.506 218.498L325.032 331.633C326.919 342.318 318.857 352.146 308.108 352.146Z" fill="#75A1DE"/>
<path d="M315.484 332.033L294.558 221.241C293.015 213.184 285.811 207.299 277.349 207.299H117.492C114.118 211.184 112.46 216.498 113.49 222.098L134.701 337.632C136.245 346.032 143.563 352.146 152.139 352.146H298.217C309.195 352.146 317.428 342.489 315.484 332.033Z" fill="#2B476B"/>
<path d="M277.578 367.287H247.733C242.416 367.287 238.071 362.545 238.071 356.717V302.149C238.071 292.836 231.21 285.293 222.748 285.293H207.14C198.678 285.293 191.817 292.836 191.817 302.149V363.23C191.817 373.687 199.536 382.143 209.084 382.086L290.556 381.515C290.499 373.63 284.724 367.287 277.578 367.287Z" fill="#75A1DE"/>
<path d="M192.961 303.349V363.516C192.961 373.287 200.565 381.286 210.17 382.029L289.699 381.515C289.699 380.201 283.41 377.858 275.691 377.858H243.388C237.614 377.858 232.982 373.173 232.982 367.459V303.349C232.982 294.207 225.55 286.779 216.402 286.779H209.598C200.394 286.779 192.961 294.207 192.961 303.349Z" fill="#A8CEFF"/>
<path d="M359.393 360.316C371.4 353.631 386.093 355.86 391.41 362.545C396.728 369.23 397.642 373.687 385.636 373.687C373.629 373.687 349.559 374.601 345.557 374.144C341.612 373.687 359.393 360.316 359.393 360.316Z" fill="#F09959"/>
<path d="M377.174 356.317C390.095 353.231 398.9 360.716 409.649 367.859C418.968 374.087 420.855 380.144 410.563 375.001C395.412 367.459 386.551 366.545 386.551 366.545L377.174 356.317Z" fill="#F09959"/>
<path d="M365.454 360.316C358.936 360.316 353.218 358.259 348.645 358.602C344.071 359.002 329.491 373.915 331.778 375.058C331.95 375.115 332.121 375.229 332.293 375.287C335.78 376.544 339.668 375.172 341.612 372.03C343.67 368.716 347.044 364.887 350.931 366.259C357.449 368.544 364.31 368.316 364.31 368.316L365.454 360.316Z" fill="#F09959"/>
<path d="M361.623 376.372C354.934 373.687 365.625 351.46 369.17 351.46C372.715 351.46 386.093 362.145 386.093 362.145C386.093 362.145 382.949 363.916 372.314 360.374C369.627 359.459 367.397 374.601 364.31 376.372C361.166 378.144 361.623 376.372 361.623 376.372Z" fill="#F7A96F"/>
<path d="M461.277 140.39C460.648 164.902 468.995 169.016 474.827 172.33C480.658 175.644 505.815 170.159 509.531 164.102C518.965 148.618 511.018 134.162 513.133 134.39C515.248 134.619 517.192 140.618 522.681 148.446C523.196 149.189 526.798 153.989 526.969 152.389C529.542 130.447 540.977 123.648 538.232 101.478C536.231 85.1365 525.826 86.4507 525.826 86.4507C525.826 86.4507 519.136 72.7374 498.268 74.2802C484.318 75.3087 471.854 80.7369 457.446 84.4509C443.038 88.1649 474.484 120.791 493.179 108.849C511.875 96.9071 502.613 123.191 505.586 125.248C508.559 127.305 507.015 125.534 508.33 138.961C509.703 152.389 492.608 161.188 487.691 162.331C472.025 165.988 469.452 163.417 466.022 157.531C463.049 152.446 461.277 140.39 461.277 140.39Z" fill="#2B476B"/>
<path d="M526.054 132.79C524.282 138.961 519.879 142.961 516.278 141.704C512.676 140.447 512.561 135.419 512.961 128.276C513.362 121.82 519.136 118.106 522.738 119.363C526.34 120.62 527.827 126.619 526.054 132.79Z" fill="#F09959"/>
<path d="M167.187 83.7383H33.6297C32.2004 83.7383 30.9998 82.5384 30.9998 81.1099V23.6284C30.9998 22.2 32.2004 21 33.6297 21H167.187C168.617 21 169.817 22.2 169.817 23.6284V81.0528C169.817 82.5384 168.617 83.7383 167.187 83.7383Z" fill="#B7E1FF"/>
<path d="M163.871 80.7671H36.8886C35.688 80.7671 34.7732 79.7958 34.7732 78.653V39.6273C34.7732 38.4274 35.7451 37.5132 36.8886 37.5132H163.871C165.072 37.5132 165.987 38.4845 165.987 39.6273V78.653C166.044 79.8529 165.072 80.7671 163.871 80.7671Z" fill="white"/>
<path d="M40.9479 30.5422H37.8606C37.2317 30.5422 36.6599 30.0279 36.6599 29.3422V26.8282C36.6599 26.1996 37.1745 25.6282 37.8606 25.6282H40.9479C41.5768 25.6282 42.1486 26.1425 42.1486 26.8282V29.3422C42.1486 30.0279 41.5768 30.5422 40.9479 30.5422Z" fill="white"/>
<path d="M50.839 30.5422H47.7517C47.1228 30.5422 46.551 30.0279 46.551 29.3422V26.8282C46.551 26.1996 47.0656 25.6282 47.7517 25.6282H50.839C51.468 25.6282 52.0397 26.1425 52.0397 26.8282V29.3422C52.0397 30.0279 51.468 30.5422 50.839 30.5422Z" fill="white"/>
<path d="M60.7299 30.5422H57.6425C57.0136 30.5422 56.4419 30.0279 56.4419 29.3422V26.8282C56.4419 26.1996 56.9565 25.6282 57.6425 25.6282H60.7299C61.3588 25.6282 61.9306 26.1425 61.9306 26.8282V29.3422C61.9306 30.0279 61.3588 30.5422 60.7299 30.5422Z" fill="white"/>
<path d="M160.669 46.9981H91.2606C90.1172 46.9981 89.2024 46.0839 89.2024 44.9411C89.2024 43.7983 90.1172 42.8841 91.2606 42.8841H160.669C161.813 42.8841 162.728 43.7983 162.728 44.9411C162.785 46.0268 161.813 46.9981 160.669 46.9981Z" fill="#B7E1FF"/>
<path d="M108.47 78.9958H39.0612C37.9177 78.9958 37.0029 78.0815 37.0029 76.9388C37.0029 75.796 37.9177 74.8818 39.0612 74.8818H108.47C109.613 74.8818 110.528 75.796 110.528 76.9388C110.528 78.0815 109.613 78.9958 108.47 78.9958Z" fill="#B7E1FF"/>
<path d="M121.277 78.9958H114.073C113.673 78.9958 113.387 78.6529 113.387 78.3101V75.5674C113.387 75.1675 113.73 74.8818 114.073 74.8818H121.277C121.677 74.8818 121.963 75.2246 121.963 75.5674V78.3101C121.963 78.7101 121.62 78.9958 121.277 78.9958Z" fill="#B7E1FF"/>
<path d="M132.083 78.9958H124.879C124.478 78.9958 124.193 78.6529 124.193 78.3101V75.5674C124.193 75.1675 124.536 74.8818 124.879 74.8818H132.083C132.483 74.8818 132.769 75.2246 132.769 75.5674V78.3101C132.769 78.7101 132.483 78.9958 132.083 78.9958Z" fill="#B7E1FF"/>
<path d="M161.356 56.026H46.3795C45.5791 56.026 44.9502 55.3975 44.9502 54.5976C44.9502 53.7976 45.5791 53.1691 46.3795 53.1691H161.356C162.156 53.1691 162.785 53.7976 162.785 54.5976C162.785 55.3975 162.099 56.026 161.356 56.026Z" fill="#B7E1FF"/>
<path d="M161.356 62.0828H46.3795C45.5791 62.0828 44.9502 61.4543 44.9502 60.6543C44.9502 59.8544 45.5791 59.2259 46.3795 59.2259H161.356C162.156 59.2259 162.785 59.8544 162.785 60.6543C162.785 61.4543 162.099 62.0828 161.356 62.0828Z" fill="#B7E1FF"/>
<path d="M215.487 160.217H81.8724C80.4431 160.217 79.2424 159.017 79.2424 157.588V100.164C79.2424 98.7355 80.4431 97.5356 81.8724 97.5356H215.43C216.859 97.5356 218.06 98.7355 218.06 100.164V157.588C218.117 159.074 216.916 160.217 215.487 160.217Z" fill="#9EC8FF"/>
<path d="M212.171 157.303H85.1884C83.9878 157.303 83.073 156.331 83.073 155.189V116.163C83.073 114.963 84.0449 114.049 85.1884 114.049H212.171C213.372 114.049 214.286 115.02 214.286 116.163V155.189C214.286 156.331 213.372 157.303 212.171 157.303Z" fill="white"/>
<path d="M89.2477 107.021H86.1604C85.5314 107.021 84.9597 106.506 84.9597 105.821V103.307C84.9597 102.678 85.4743 102.107 86.1604 102.107H89.2477C89.8766 102.107 90.4484 102.621 90.4484 103.307V105.821C90.3912 106.506 89.8766 107.021 89.2477 107.021Z" fill="white"/>
<path d="M99.1389 107.021H96.0515C95.4226 107.021 94.8508 106.506 94.8508 105.821V103.307C94.8508 102.678 95.3654 102.107 96.0515 102.107H99.1389C99.7678 102.107 100.34 102.621 100.34 103.307V105.821C100.282 106.506 99.7678 107.021 99.1389 107.021Z" fill="white"/>
<path d="M109.03 107.021H105.942C105.313 107.021 104.742 106.506 104.742 105.821V103.307C104.742 102.678 105.256 102.107 105.942 102.107H109.03C109.659 102.107 110.23 102.621 110.23 103.307V105.821C110.173 106.506 109.659 107.021 109.03 107.021Z" fill="white"/>
<path d="M208.969 123.477H139.56C138.417 123.477 137.502 122.562 137.502 121.42C137.502 120.277 138.417 119.363 139.56 119.363H208.969C210.113 119.363 211.027 120.277 211.027 121.42C211.027 122.562 210.113 123.477 208.969 123.477Z" fill="#9EC8FF"/>
<path d="M156.77 155.531H87.3039C86.1604 155.531 85.2456 154.617 85.2456 153.474C85.2456 152.332 86.1604 151.417 87.3039 151.417H156.713C157.856 151.417 158.771 152.332 158.771 153.474C158.828 154.56 157.913 155.531 156.77 155.531Z" fill="#9EC8FF"/>
<path d="M169.52 155.531H162.373C161.973 155.531 161.687 155.188 161.687 154.846V152.103C161.687 151.703 162.03 151.417 162.373 151.417H169.577C169.977 151.417 170.263 151.76 170.263 152.103V154.846C170.263 155.188 169.92 155.531 169.52 155.531Z" fill="#9EC8FF"/>
<path d="M180.383 155.531H173.179C172.779 155.531 172.493 155.188 172.493 154.846V152.103C172.493 151.703 172.836 151.417 173.179 151.417H180.383C180.783 151.417 181.069 151.76 181.069 152.103V154.846C181.069 155.188 180.783 155.531 180.383 155.531Z" fill="#9EC8FF"/>
<path d="M209.655 132.562H94.6793C93.8789 132.562 93.25 131.933 93.25 131.133C93.25 130.333 93.8789 129.705 94.6793 129.705H209.655C210.456 129.705 211.085 130.333 211.085 131.133C211.028 131.933 210.399 132.562 209.655 132.562Z" fill="#9EC8FF"/>
<path d="M209.655 138.618H94.6793C93.8789 138.618 93.25 137.99 93.25 137.19C93.25 136.39 93.8789 135.761 94.6793 135.761H209.655C210.456 135.761 211.085 136.39 211.085 137.19C211.028 137.99 210.399 138.618 209.655 138.618Z" fill="#9EC8FF"/>
<path d="M267.515 144.904C267.515 154.846 259.454 162.902 249.506 162.902C239.557 162.902 231.496 154.846 231.496 144.904C231.496 134.961 239.557 126.905 249.506 126.905C259.454 126.905 267.515 134.961 267.515 144.904Z" fill="#50BE80"/>
<path d="M247.676 151.532C247.276 151.532 246.876 151.36 246.647 151.075L241.73 145.532C241.215 144.961 241.273 144.104 241.844 143.589C242.416 143.075 243.274 143.132 243.788 143.704L247.733 148.16L257.167 138.961C257.681 138.447 258.596 138.447 259.111 138.961C259.625 139.475 259.625 140.39 259.111 140.904L248.648 151.132C248.419 151.417 248.076 151.532 247.676 151.532Z" fill="white"/>
<path d="M383.006 61.2526H268.373C265.457 61.2526 263.056 58.8528 263.056 55.9387V14.9703C263.056 12.0562 265.457 9.65637 268.373 9.65637H382.949C385.864 9.65637 388.266 12.0562 388.266 14.9703V55.8815C388.323 58.8528 385.922 61.2526 383.006 61.2526Z" fill="#9EC8FF"/>
<path d="M278.149 53.4246V81.8796L311.024 49.0821C311.024 49.0821 278.835 53.4246 278.149 53.4246Z" fill="#9EC8FF"/>
<path d="M377.346 56.1101H274.033C271.517 56.1101 269.516 54.0532 269.516 51.5962V19.2557C269.516 16.7416 271.574 14.7418 274.033 14.7418H377.346C379.861 14.7418 381.862 16.7988 381.862 19.2557V51.5962C381.862 54.0532 379.804 56.1101 377.346 56.1101Z" fill="white"/>
<path d="M330.692 24.9695H279.979C278.778 24.9695 277.749 23.941 277.749 22.7411C277.749 21.5412 278.778 20.5127 279.979 20.5127H330.692C331.893 20.5127 332.922 21.5412 332.922 22.7411C332.922 23.9982 331.893 24.9695 330.692 24.9695Z" fill="#9EC8FF"/>
<path d="M373.058 33.4832H278.95C278.264 33.4832 277.692 32.9118 277.692 32.2261C277.692 31.5405 278.264 30.9691 278.95 30.9691H373.058C373.744 30.9691 374.315 31.5405 374.315 32.2261C374.315 32.9118 373.744 33.4832 373.058 33.4832Z" fill="#9EC8FF"/>
<path d="M373.058 38.34H278.95C278.264 38.34 277.692 37.7686 277.692 37.0829C277.692 36.3973 278.264 35.8259 278.95 35.8259H373.058C373.744 35.8259 374.315 36.3973 374.315 37.0829C374.315 37.7686 373.744 38.34 373.058 38.34Z" fill="#9EC8FF"/>
<path d="M353.618 54.3388H350.531C349.902 54.3388 349.33 53.8245 349.33 53.1389V50.6247C349.33 49.9962 349.845 49.4248 350.531 49.4248H353.618C354.247 49.4248 354.819 49.9391 354.819 50.6247V53.1389C354.819 53.8245 354.247 54.3388 353.618 54.3388Z" fill="#9EC8FF"/>
<path d="M363.51 54.3388H360.422C359.793 54.3388 359.222 53.8245 359.222 53.1389V50.6247C359.222 49.9962 359.736 49.4248 360.422 49.4248H363.51C364.138 49.4248 364.71 49.9391 364.71 50.6247V53.1389C364.71 53.8245 364.138 54.3388 363.51 54.3388Z" fill="#9EC8FF"/>
<path d="M373.401 54.3388H370.313C369.684 54.3388 369.113 53.8245 369.113 53.1389V50.6247C369.113 49.9962 369.627 49.4248 370.313 49.4248H373.401C374.029 49.4248 374.601 49.9391 374.601 50.6247V53.1389C374.601 53.8245 374.029 54.3388 373.401 54.3388Z" fill="#9EC8FF"/>
</g>
<defs>
<clipPath id="clip0_88_57">
<rect width="797" height="389" fill="white"/>
</clipPath>
</defs>
</svg>
