<svg xmlns="http://www.w3.org/2000/svg" viewBox="0 0 254.63 257.97"><defs><style>.cls-1{fill:#268265;}.cls-2{fill:none;stroke:#d33a39;stroke-miterlimit:10;}.cls-3{fill:#acd291;}.cls-4{fill:#7caf5a;}.cls-5{fill:#e3e9db;}.cls-6{fill:#fff;}</style></defs><g id="Layer_2" data-name="Layer 2"><g id="Layer_4" data-name="Layer 4"><path class="cls-1" d="M247.26,170.09l-48.26,2,45.93,4a127.32,127.32,0,0,1-117.61,78.49c-1.08,0-2.14,0-3.22,0h0A127.35,127.35,0,0,1,6.24,166.77L68.7,163.6,3.44,156.81A127.59,127.59,0,0,1,24.19,52.63l36.26-1.84L28.18,47.43a127.35,127.35,0,0,1,213.27,23.4l-20,1L243,74.08a127.73,127.73,0,0,1,4.26,96Z"/><path class="cls-2" d="M78.73,252.25c1.56-.1,3.12-.25,4.66-.44C81.85,252,80.3,252.15,78.73,252.25Z"/><path class="cls-3" d="M217.11,106.43c0,1.68-.05,3.35-.17,5H130.4l0,0a.09.09,0,0,0-.06,0l0,0H64.5c-.12-1.65-.17-3.32-.17-5,0-1.32,0-2.63.11-3.93,0-.56.06-1.12.1-1.68a76.39,76.39,0,0,1,152.57,5.61Z"/><path class="cls-4" d="M117.77,238.45c-2,1.45-4.18,2.8-6.37,4.05-1.31.75-2.66,1.45-4,2.12-.6.3-1.21.59-1.82.87l-.51.23-1.57.68-1.43.59-1,.41-1.56.57c-.32.13-.64.24-1,.34h0l-1.31.44-1.32.41c-.43.14-.88.27-1.33.39l-1.35.37-1.35.34-1.36.32-.91.19c-.61.14-1.23.26-1.84.37l-1.94.34h0c-.73.12-1.46.22-2.2.32h-.11c-1.54.19-3.1.34-4.66.44-.79.05-1.58.09-2.38.12h0a51.1,51.1,0,0,1-26.41-34,51,51,0,0,0,45.13,11.2,25.33,25.33,0,0,0,19.46,9.06A26.75,26.75,0,0,0,117.77,238.45Z"/><path class="cls-5" d="M198.13,198.29a76.55,76.55,0,0,1-48,49.85A76,76,0,0,0,166,203.27a76.41,76.41,0,0,1-65.76,45h0l-1.74.07c.33-.1.65-.21,1-.34l1.56-.57,1-.41,1.43-.59,1.57-.68.51-.23c.61-.28,1.22-.57,1.82-.87,1.36-.67,2.71-1.37,4-2.12,2.19-1.25,4.32-2.6,6.37-4.05h0a77.29,77.29,0,0,0,14-12.75,76.11,76.11,0,0,0,14.91-26.9c1-.34,2-.71,3-1.11A50.85,50.85,0,0,0,164.8,188a50.26,50.26,0,0,0,7.46-8.61,76,76,0,0,0-6.52-20.08,50.78,50.78,0,0,1,6.32,2.88,49.52,49.52,0,0,1,6.61,4.24A50.9,50.9,0,0,1,198.13,198.29Z"/><path class="cls-3" d="M198.88,207A50.93,50.93,0,0,1,148,258H99.59a50.72,50.72,0,0,1-23.24-5.6c.8,0,1.59-.07,2.38-.12,1.57-.1,3.12-.24,4.66-.44h.11c.74-.1,1.47-.2,2.2-.32h0l1.94-.34c.61-.11,1.23-.23,1.84-.37l.91-.19,1.36-.32,1.35-.34,1.35-.37c.45-.12.9-.25,1.33-.39l1.32-.41,1.31-.44h0l1.74-.07h0a76.41,76.41,0,0,0,65.76-45,76,76,0,0,1-15.82,44.87,76.55,76.55,0,0,0,48-49.85A51.49,51.49,0,0,1,198.88,207Z"/><path class="cls-3" d="M64.44,102.5c-.08,1.3-.11,2.61-.11,3.93,0,1.68,0,3.35.17,5H27.34c-.05-.83-.07-1.66-.07-2.5A50.93,50.93,0,0,1,78.2,58c1.13,0,2.24,0,3.35.11a76,76,0,0,0-17,42.71C64.5,101.38,64.46,101.94,64.44,102.5Z"/><path class="cls-6" d="M186.77,111.43a25.57,25.57,0,0,1-15.24,17.12,23.5,23.5,0,0,0-.59-3.37,25.45,25.45,0,0,0,12-13.75Z"/><path class="cls-3" d="M121.2,144.94H78a25.41,25.41,0,0,1,18-11.75,25.81,25.81,0,0,1,3.65-.26h.16A25.43,25.43,0,0,1,121.2,144.94Z"/><path class="cls-4" d="M89.61,135a25.51,25.51,0,0,0-11.64,10H67.89a25.38,25.38,0,0,1,20.23-10C88.62,134.92,89.12,134.93,89.61,135Z"/><path class="cls-6" d="M101.46,159.7a25.66,25.66,0,0,0-5,3.94,25.34,25.34,0,0,1-5.11-18.7h5.42A25.3,25.3,0,0,0,101.46,159.7Z"/><path class="cls-4" d="M238.31,104.87a25.32,25.32,0,0,1-.86,6.56H216.94c.12-1.65.17-3.32.17-5a76,76,0,0,0-4.92-27c.22,0,.44,0,.66,0A25.46,25.46,0,0,1,238.31,104.87Z"/><path class="cls-6" d="M171.68,131.26a25.42,25.42,0,0,1-20.51,25h-.07a21.1,21.1,0,0,1-3.47.43l-.64,0h0c-.25,0-.51,0-.77,0-.47,0-1,0-1.41,0a22.28,22.28,0,0,1-2.46-.26c-.54-.08-1.07-.18-1.6-.29l-.09,0h0a25.23,25.23,0,0,0-10.88,2.82c-.61.31-1.2.65-1.78,1-.36.22-.71.45-1,.7a23.92,23.92,0,0,0-2.18,1.69l-.29.26a25.54,25.54,0,0,0-5.78,7.57,24.56,24.56,0,0,0-1.41,3.38,26.13,26.13,0,0,0-1,4.06c0,.19-.06.38-.09.57a27.06,27.06,0,0,0-.22,3.39v20.57a25.47,25.47,0,0,0,.46,4.81,25.19,25.19,0,0,0,3.38,8.64,25.48,25.48,0,0,0,11.94,10.11,77.29,77.29,0,0,1-14,12.75h0a26.75,26.75,0,0,1-3.25.2,25.49,25.49,0,0,1-25.46-25.46V181.56c0-.34,0-.69,0-1a25.26,25.26,0,0,1,5-14.2,25.3,25.3,0,0,1,7.34-6.63,25,25,0,0,1,6.85-2.84,22.3,22.3,0,0,1,2.61-.51c.79.13,1.58.23,2.39.3.64,0,1.29.07,2,.07a25.51,25.51,0,0,0,9.54-1.86,23.34,23.34,0,0,0,2.27-1.05,25.07,25.07,0,0,0,3.67-2.34,25.53,25.53,0,0,0,7.35-8.94,24.89,24.89,0,0,0,1.78-4.73,25.22,25.22,0,0,0,.85-6.54v-.63a5.62,5.62,0,0,0,0-.58,24,24,0,0,0-.22-2.83A25.23,25.23,0,0,0,132,111.43h30.22a25.36,25.36,0,0,1,8.77,13.75,23.5,23.5,0,0,1,.59,3.37A24.21,24.21,0,0,1,171.68,131.26Z"/></g></g></svg>